<svg aria-hidden="true" style="position:absolute;width:0;height:0;overflow:hidden" xmlns="http://www.w3.org/2000/svg">
    <defs>


        <symbol id="icon-dot" viewBox="0 0 32 32">
            <path d="M32 16c0 8.837-7.163 16-16 16S0 24.837 0 16 7.163 0 16 0s16 7.163 16 16z" />
        </symbol>
        <symbol id="products_3dots" viewBox="0 0 139 32">
            <path
                d="M85.333 16c0 8.837-7.163 16-16 16s-16-7.163-16-16 7.163-16 16-16 16 7.163 16 16zM32 16c0 8.837-7.163 16-16 16S0 24.837 0 16 7.163 0 16 0s16 7.163 16 16zM138.667 16c0 8.837-7.163 16-16 16s-16-7.163-16-16 7.163-16 16-16 16 7.163 16 16z" />
        </symbol>
        <symbol id="reviews_3dots" viewBox="0 0 256 32">
            <path fill="#c7133e" style="fill:var(--color1, #c7133e)"
                d="M144 16c0 8.837-7.163 16-16 16s-16-7.163-16-16 7.163-16 16-16 16 7.163 16 16zM32 16c0 8.837-7.163 16-16 16S0 24.837 0 16 7.163 0 16 0s16 7.163 16 16zM256 16c0 8.837-7.163 16-16 16s-16-7.163-16-16 7.163-16 16-16 16 7.163 16 16z" />
        </symbol>


        <symbol id="arrow_buy-now" viewBox="0 0 19 32">
            <path stroke="#d41443" stroke-linejoin="round" stroke-linecap="round" stroke-width="6.4"
                d="M3.2 3.2 16 16 3.2 28.8" />
        </symbol>

        <symbol id="burger" viewBox="0 0 46 32">
            <path stroke="#d41443" stroke-width="2.286" d="M0 2.286h45.714M0 16h45.714M0 29.714h45.714" />
        </symbol>
        <symbol id="cross" viewBox="0 0 32 32">
            <path fill="none" stroke="#fff" style="stroke:var(--color2, #fff)" stroke-width="2"
                d="m2.519 2 26.963 28M2 29.481 30 2.518" />
        </symbol>

        <symbol id="icon-facebook" viewBox="0 0 16 32">
            <path fill="#fff" style="fill:var(--color2, #fff)"
                d="M14.143 15.972h-4.034v14.865H3.997V15.972H1.09v-5.224h2.907V7.367c0-2.418 1.142-6.203 6.166-6.203l4.527.019v5.071h-3.285c-.539 0-1.296.271-1.296 1.424v3.075h4.567l-.534 5.219z" />
        </symbol>
        <symbol id="icon-telegram" viewBox="0 0 44 32">
            <path fill="#fff" style="fill:var(--color2, #fff)"
                d="m17.343 21.048-.675 8.86c.966 0 1.384-.387 1.885-.852l4.527-4.038 9.381 6.412c1.72.895 2.933.424 3.397-1.477l6.157-26.929.002-.002c.546-2.374-.92-3.302-2.596-2.72L3.227 13.235c-2.47.895-2.433 2.18-.42 2.762l9.253 2.686L33.554 6.131c1.011-.625 1.931-.279 1.175.346l-17.386 14.57z" />
        </symbol>
        <symbol id="icon-twitter" viewBox="0 0 32 32">
            <path fill="#fff" style="fill:var(--color2, #fff)"
                d="M16 0C7.212 0 0 7.212 0 16c0 7.499 5.262 14.312 12.25 16v-5.293c-.692.152-1.33.156-2.034-.052-.946-.279-1.714-.909-2.284-1.869-.364-.613-1.008-1.278-1.68-1.23l-.165-1.868c1.453-.124 2.711.886 3.457 2.14.332.558.713.884 1.203 1.029.473.14.982.072 1.574-.137.149-1.186.692-1.63 1.102-2.255v-.001c-4.167-.622-5.828-2.832-6.488-4.578-.874-2.317-.405-5.212 1.14-7.041.03-.036.084-.129.063-.194-.708-2.139.155-3.909.187-4.097.817.242.95-.243 3.551 1.337l.449.27c.188.112.129.048.317.034A13.544 13.544 0 0 1 16 7.723c1.136.015 2.273.178 3.404.484l.145.015c-.013-.002.04-.009.127-.062 3.248-1.968 3.132-1.324 4.003-1.608.032.188.883 1.987.182 4.099-.095.291 2.816 2.956 1.203 7.235-.659 1.746-2.32 3.957-6.487 4.578v.001c.534.814 1.176 1.247 1.173 2.927V32C26.738 30.312 32 23.499 32 16c0-8.788-7.212-16-16-16z" />
        </symbol>

        <symbol id="reviews_circl-icon" viewBox="0 0 35 32">
            <path fill="#d9d9d9" style="fill:var(--color4, #d9d9d9)"
                d="M33.053 16c0 8.837-7.163 16-16 16s-16-7.163-16-16 7.163-16 16-16 16 7.163 16 16z" />
        </symbol>
        <symbol id="reviews_house-icon" viewBox="0 0 35 32">
            <path fill="#d31342" style="fill:var(--color5, #d31342)"
                d="M32.64 15.401a1.541 1.541 0 0 0-.129-2.225L17.739.426c-.671-.578-1.745-.566-2.402.027L.515 13.856a1.532 1.532 0 0 0-.071 2.222l.372.382c.617.633 1.613.708 2.224.168l1.108-.979v14.326c0 .879.722 1.591 1.612 1.591h5.778c.89 0 1.612-.712 1.612-1.591V19.952h7.37v10.023c-.013.878.624 1.59 1.515 1.59h6.123c.89 0 1.613-.711 1.613-1.59V15.851l.683.592c.377.328 1.168.065 1.767-.586l.42-.455z" />
        </symbol>
        <symbol id="reviews_quotes-icon" viewBox="0 0 43 32">
            <path fill="#e1e1e1" style="fill:var(--color6, #e1e1e1)"
                d="M32.014 0c1.929 0 3.75.52 5.464 1.561s3.107 2.537 4.179 4.488C42.686 8 43.2 10.298 43.2 12.943s-.643 5.225-1.929 7.74c-.429.911-1.2 2.081-2.314 3.512a63.368 63.368 0 0 1-3.214 3.707L31.693 32 28.8 27.187a22.03 22.03 0 0 0 5.336-4.683c1.543-1.821 2.314-3.491 2.314-5.008 0-.78-.171-1.409-.514-1.886a8.359 8.359 0 0 1-5.014 1.626c-1.329 0-2.593-.412-3.793-1.236a8.555 8.555 0 0 1-2.957-3.122c-.771-1.258-1.157-2.558-1.157-3.902 0-1.518.45-2.97 1.35-4.358a10.222 10.222 0 0 1 3.407-3.382C29.143.412 30.558 0 32.015 0zM8.936 0c1.929 0 3.75.52 5.464 1.561s3.107 2.537 4.179 4.488c1.029 1.951 1.543 4.249 1.543 6.894 0 1.864-.236 3.534-.707 5.008-.471 1.518-1.286 3.1-2.443 4.748-1.114 1.561-2.164 2.862-3.15 3.902-.986 1.084-2.7 2.884-5.143 5.398l-2.893-4.813a22.03 22.03 0 0 0 5.336-4.683c1.543-1.821 2.314-3.491 2.314-5.008 0-.78-.171-1.409-.514-1.886a8.359 8.359 0 0 1-5.014 1.626c-1.329 0-2.593-.412-3.793-1.236a8.555 8.555 0 0 1-2.957-3.122C.387 11.619.001 10.319.001 8.975c0-1.518.429-2.97 1.286-4.358S3.28 2.102 4.694 1.235C6.065.411 7.48-.001 8.937-.001z" />
        </symbol>

        <symbol id="icon-arrow-white" viewBox="0 0 26 32">
            <path fill="none" stroke="#fff" style="stroke: var(--color1, #fff)" stroke-linejoin="round"
                stroke-linecap="round" stroke-miterlimit="4" stroke-width="6.4" d="M5.172 3.2l14.169 12.8-14.169 12.8">
            </path>
        </symbol>

        <symbol id="products-arrow" viewBox="0 0 32 32">
            <path
                d="m19.414 27.414 10-10a2 2 0 0 0 0-2.828l-10-10a2 2 0 1 0-2.828 2.828L23.172 14H4a2 2 0 1 0 0 4h19.172l-6.586 6.586c-.39.39-.586.902-.586 1.414s.195 1.024.586 1.414a2 2 0 0 0 2.828 0z" />
        </symbol>
        <symbol id="products" viewBox="0 0 123 32">
            <path fill="#fff" style="fill:var(--color1, #fff)"
                d="M75.406 16.494c0 7.635-6.122 13.824-13.673 13.824S48.06 24.129 48.06 16.494 54.182 2.67 61.733 2.67s13.673 6.189 13.673 13.824zM29.829 16.494c0 7.635-6.122 13.824-13.673 13.824S2.483 24.129 2.483 16.494 8.605 2.67 16.156 2.67s13.673 6.189 13.673 13.824zM120.987 16.494c0 7.635-6.122 13.824-13.673 13.824s-13.673-6.189-13.673-13.824S99.763 2.67 107.314 2.67s13.673 6.189 13.673 13.824z" />
        </symbol>

        <symbol fill="none" xmlns="http://www.w3.org/2000/svg" viewBox="-10 -5 30 30" id="facebook">
            <path
                d="M8.91621 9.98141H6.30604V19.5999H2.35142V9.98141H0.470581V6.60109H2.35142V4.41364C2.35142 2.84938 3.09014 0.399902 6.34125 0.399902L9.27058 0.412229V3.69341H7.14516C6.79653 3.69341 6.3063 3.86861 6.3063 4.61481V6.60424H9.26171L8.91621 9.98141Z"
                fill="white"></path>
        </symbol>
        <symbol fill="none" xmlns="http://www.w3.org/2000/svg" viewBox="-5 -5 30 30" id="gitHub">
            <path
                d="M10 0.588379C4.83056 0.588379 0.588257 4.83068 0.588257 10.0001C0.588257 14.4115 3.68367 18.4187 7.79414 19.4119V16.2981C7.38685 16.3873 7.01203 16.3899 6.59742 16.2677C6.04121 16.1035 5.58926 15.733 5.25378 15.168C5.03995 14.8073 4.66095 14.4161 4.26559 14.4448L4.16865 13.3462C5.02357 13.2729 5.76318 13.867 6.2022 14.6046C6.39722 14.9326 6.62169 15.1249 6.90978 15.21C7.18824 15.292 7.48724 15.2526 7.83564 15.1295C7.9231 14.432 8.24264 14.1709 8.48405 13.8033V13.8027C6.03259 13.4371 5.0556 12.1365 4.66785 11.11C4.154 9.74695 4.42974 8.04415 5.33837 6.96806C5.35604 6.94709 5.38792 6.89223 5.37557 6.85389C4.95895 5.59542 5.46662 4.55437 5.48529 4.44393C5.9661 4.58611 6.04423 4.3009 7.57384 5.23021L7.83823 5.38904C7.94881 5.45496 7.91405 5.41734 8.02464 5.40901C8.66328 5.23552 9.33653 5.13973 9.99988 5.13112C10.6682 5.13973 11.3372 5.23552 12.0023 5.41604L12.0879 5.42466C12.0804 5.42351 12.1111 5.4192 12.1627 5.38847C14.0734 4.2311 14.0048 4.60937 14.5172 4.44278C14.5357 4.55337 15.0366 5.61136 14.6245 6.85389C14.5689 7.02507 16.281 8.59289 15.3321 11.1095C14.9443 12.1365 13.9674 13.4371 11.516 13.8027V13.8033C11.8302 14.2822 12.2078 14.537 12.2058 15.525V19.4119C16.3164 18.4187 19.4116 14.4115 19.4116 10.0001C19.4118 4.83068 15.1695 0.588379 10 0.588379V0.588379Z"
                fill="white"></path>
        </symbol>
        <symbol fill="none" xmlns="http://www.w3.org/2000/svg" viewBox="-4 -7 30 30" id="telegram">
            <path
                d="M8.10253 10.3753L7.78492 14.5446C8.23933 14.5446 8.43613 14.3624 8.67214 14.1437L10.8026 12.2434L15.2171 15.2607C16.0267 15.6818 16.5971 15.46 16.8155 14.5655L19.7132 1.89318L19.714 1.89243C19.9708 0.775425 19.2812 0.338627 18.4924 0.612652L1.45997 6.6987C0.297539 7.11982 0.31514 7.72461 1.26236 7.99864L5.61687 9.26274L15.7315 3.35589C16.2075 3.06171 16.6403 3.22448 16.2843 3.51866L8.10253 10.3753Z"
                fill="white"></path>
        </symbol>
        <symbol id="icon-topButton" viewBox="0 0 35 32">
            <path fill="#d31342" style="fill: var(--color1, #d31342)"
                d="M34.253 15.613c0.599-0.659 0.541-1.669-0.129-2.255l-14.772-12.926c-0.671-0.586-1.745-0.574-2.402 0.028l-14.822 13.587c-0.656 0.602-0.689 1.611-0.071 2.252l0.372 0.387c0.617 0.642 1.613 0.718 2.224 0.17l1.108-0.992v14.523c0 0.891 0.722 1.613 1.612 1.613h5.778c0.89 0 1.612-0.721 1.612-1.613v-10.16h7.37v10.16c-0.013 0.89 0.624 1.612 1.515 1.612h6.123c0.89 0 1.613-0.722 1.613-1.613v-14.318c0 0 0.306 0.268 0.683 0.6s1.168 0.066 1.767-0.594l0.42-0.462z">
            </path>
        </symbol>
    </defs>
</svg>