<!-- Generated by IcoMoon.io -->
<svg version="1.1" xmlns="http://www.w3.org/2000/svg" width="123" height="32" viewBox="0 0 123 32">
<title>Group-3-1</title>
<path fill="#fff" d="M75.406 16.494c0 7.635-6.122 13.824-13.673 13.824s-13.673-6.189-13.673-13.824c0-7.635 6.122-13.824 13.673-13.824s13.673 6.189 13.673 13.824z"></path>
<path fill="#fff" d="M29.829 16.494c0 7.635-6.122 13.824-13.673 13.824s-13.673-6.189-13.673-13.824c0-7.635 6.122-13.824 13.673-13.824s13.673 6.189 13.673 13.824z"></path>
<path fill="#fff" d="M120.987 16.494c0 7.635-6.122 13.824-13.673 13.824s-13.673-6.189-13.673-13.824c0-7.635 6.122-13.824 13.673-13.824s13.673 6.189 13.673 13.824z"></path>
</svg>
